<?xml version="1.0" encoding="UTF-8"?>
<svg width="173px" height="126px" viewBox="0 0 173 126" version="1.1" xmlns="http://www.w3.org/2000/svg" xmlns:xlink="http://www.w3.org/1999/xlink">
    <!-- Generator: Sketch 51.1 (57501) - http://www.bohemiancoding.com/sketch -->
    <title>no-houses-image_svg</title>
    <desc>Created with Sketch.</desc>
    <defs></defs>
    <g id="Search-Results" stroke="none" stroke-width="1" fill="none" fill-rule="evenodd">
        <g id="map-noresults" transform="translate(-322.000000, -235.000000)">
            <g id="no-houses-image" transform="translate(325.000000, 238.000000)">
                <g id="Page-1" transform="translate(1.128378, 52.584112)">
                    <polygon id="Fill-1" fill="#B1BAD5" points="83.4735686 25.1645345 83.4735686 66.6198445 78.6377577 66.6198445 78.6377577 30.4173235 16.6768213 30.4173235 16.6768213 25.1645345"></polygon>
                    <polygon id="Stroke-2" stroke="#404A6B" stroke-width="4.16825684" stroke-linejoin="round" points="16.6762508 67.6702109 105.390777 67.6702109 105.390777 25.0619955 16.6762508 25.0619955"></polygon>
                    <polygon id="Fill-4" fill="#FFFFFF" points="103.261034 25.7565857 9.05826812 25.7565857 20.2774159 0.187158722 105.390873 0.187158722"></polygon>
                    <polygon id="Stroke-5" stroke="#404A6B" stroke-width="4.16825684" stroke-linejoin="round" points="103.261034 25.7565857 9.05826812 25.7565857 20.2774159 0.187158722 105.390873 0.187158722"></polygon>
                    <polygon id="Fill-7" fill="#FFFFFF" points="83.473117 67.6702348 127.308676 67.6702348 127.308676 16.2792202 105.390896 0.187110874 83.473117 16.2792202"></polygon>
                    <polygon id="Stroke-8" stroke="#404A6B" stroke-width="4.16825684" stroke-linejoin="round" points="83.473117 67.6702348 127.308676 67.6702348 127.308676 16.2792202 105.390896 0.187110874 83.473117 16.2792202"></polygon>
                    <polygon id="Fill-10" fill="#B1BAD5" points="40.4729991 41.4064569 40.4729991 39.3051977 60.8251888 39.3051977 60.8251888 55.0638042 58.7378944 55.0638042 58.7378944 41.4064569"></polygon>
                    <polygon id="Stroke-11" stroke="#404A6B" stroke-width="2.08400977" points="39.9490364 55.0638521 60.8229308 55.0638521 60.8229308 39.3052456 39.9490364 39.3052456"></polygon>
                    <polygon id="Fill-12" fill="#B1BAD5" points="112.331352 42.5683338 112.331352 65.5692628 110.100975 65.5692628 110.100975 44.7707922 99.178688 44.7707922 99.178688 42.5683338"></polygon>
                    <g id="Group-20" transform="translate(0.000000, 42.497925)">
                        <polygon id="Stroke-13" stroke="#404A6B" stroke-width="2.08400977" points="99.1785692 24.1217759 112.331233 24.1217759 112.331233 0.0703370373 99.1785692 0.0703370373"></polygon>
                        <path d="M31.9608929,25.1723098 L4.87692931,25.1723098 C4.50115928,24.1954863 4.30293524,23.1342104 4.30293524,22.0207799 C4.30293524,17.0933594 8.27929994,13.0908471 13.1742928,13.0908471 C17.1404373,13.0908471 20.5116721,15.7277682 21.6387445,19.3417522 C22.6719338,18.7113505 23.8829068,18.3436362 25.1768297,18.3436362 C28.9238344,18.3436362 31.9608929,21.4006656 31.9608929,25.1723098" id="Fill-15" fill="#FFFFFF"></path>
                        <path d="M31.9608929,25.1723098 L4.87692931,25.1723098 C4.50115928,24.1954863 4.30293524,23.1342104 4.30293524,22.0207799 C4.30293524,17.0933594 8.27929994,13.0908471 13.1742928,13.0908471 C17.1404373,13.0908471 20.5116721,15.7277682 21.6387445,19.3417522 C22.6719338,18.7113505 23.8829068,18.3436362 25.1768297,18.3436362 C28.9238344,18.3436362 31.9608929,21.4006656 31.9608929,25.1723098 Z" id="Stroke-16" stroke="#404A6B" stroke-width="2.08400977" stroke-linejoin="round"></path>
                        <g id="Group-19" transform="translate(0.000000, 25.120370)">
                            <path d="M0.185983585,0.0518320437 L143.173016,0.0518320437" id="Fill-17" fill="#FFFFFF"></path>
                            <path d="M0.185983585,0.0518320437 L143.173016,0.0518320437" id="Stroke-18" stroke="#404A6B" stroke-width="4.16825684" stroke-linecap="round" stroke-linejoin="round"></path>
                        </g>
                    </g>
                </g>
                <path d="M167,24.3130841 C167,37.7408875 156.138425,48.6261682 142.739865,48.6261682 C129.341304,48.6261682 118.47973,37.7408875 118.47973,24.3130841 C118.47973,10.8852807 129.341304,0 142.739865,0 C156.138425,0 167,10.8852807 167,24.3130841" id="Fill-1" fill="#FFFFFF"></path>
                <path d="M167,24.3130841 C167,37.7408875 156.138425,48.6261682 142.739865,48.6261682 C129.341304,48.6261682 118.47973,37.7408875 118.47973,24.3130841 C118.47973,10.8852807 129.341304,0 142.739865,0 C156.138425,0 167,10.8852807 167,24.3130841 Z" id="Stroke-3" stroke="#FFEA3E" stroke-width="4.25724609"></path>
                <path d="M139.215119,29.4479462 C139.215119,22.9932488 146.501765,21.9694003 146.501765,17.3843393 C146.501765,15.2921271 144.646982,13.6895815 142.2181,13.6895815 C141.201137,13.6895815 140.222016,13.9184531 139.280737,14.3761961 L139.280729,14.3761785 C138.130115,14.9357209 136.745342,14.6227683 135.947169,13.6228088 L135.947169,13.6228088 C135.091816,12.551213 135.267115,10.9891119 136.338711,10.1337585 C136.440731,10.0523256 136.549014,9.97906581 136.662554,9.9146605 C138.347174,8.95910203 140.360943,8.48130841 142.703877,8.48130841 C147.694125,8.48130841 152.331081,11.5973692 152.331081,16.8501575 C152.331081,24.195158 144.646982,25.0409459 144.646982,29.8485826 L144.646982,29.8485826 C144.646982,30.8073992 143.869708,31.5846737 142.910891,31.5846737 L141.351847,31.5846737 C140.171765,31.5846737 139.215119,30.6280282 139.215119,29.4479462 Z M139.215119,38.0838862 L139.215119,38.0838862 C139.215119,36.6333688 140.390996,35.4574921 141.841513,35.4574921 L142.020588,35.4574921 C143.471106,35.4574921 144.646982,36.6333688 144.646982,38.0838862 L144.646982,38.0838862 C144.646982,39.5344037 143.471106,40.7102804 142.020588,40.7102804 L141.841513,40.7102804 C140.390996,40.7102804 139.215119,39.5344037 139.215119,38.0838862 Z" id="?" fill="#FFEA3E"></path>
                <path d="M0,120.434579 L138.226351,120.434579" id="Line-3" stroke="#404A6B" stroke-width="4.5" stroke-linecap="round"></path>
            </g>
        </g>
    </g>
</svg>