<?xml version="1.0" encoding="UTF-8"?>
<svg width="15px" height="14px" viewBox="0 0 15 14" version="1.1" xmlns="http://www.w3.org/2000/svg" xmlns:xlink="http://www.w3.org/1999/xlink">
    <!-- Generator: Sketch 49.3 (51167) - http://www.bohemiancoding.com/sketch -->
    <title>star-filled </title>
    <desc>Created with Sketch.</desc>
    <defs></defs>
    <g id="Symbols" stroke="none" stroke-width="1" fill="none" fill-rule="evenodd">
        <g id="star-filled-" fill="#FFEA3E" fill-rule="nonzero">
            <path d="M14.2265487,5.11284876 C14.1204451,4.78710924 13.83861,4.54985604 13.4995487,4.50084876 L9.65954874,3.94284876 L7.94254874,0.460848764 C7.77404366,0.175259673 7.46714351,0 7.13554874,0 C6.80395397,0 6.49705382,0.175259673 6.32854874,0.460848764 L4.61154874,3.94284876 L0.771548742,4.50084876 C0.432376107,4.54976758 0.150414331,4.78705442 0.0442800545,5.11288665 C-0.0618542223,5.43871888 0.026257756,5.79655092 0.271548742,6.03584876 L3.05154874,8.74384876 L2.39554874,12.5688488 C2.33748678,12.9065779 2.4762568,13.2479746 2.75348012,13.4494179 C3.03070343,13.6508612 3.39826971,13.6773918 3.70154874,13.5178488 L7.13554874,11.7118488 L10.5705487,13.5178488 C10.8738278,13.6773918 11.2413941,13.6508612 11.5186174,13.4494179 C11.7958407,13.2479746 11.9346107,12.9065779 11.8765487,12.5688488 L11.2205487,8.74384876 L13.9995487,6.03584876 C14.2447591,5.79648499 14.3327661,5.43864168 14.2265487,5.11284876 Z" id="Shape"></path>
        </g>
    </g>
</svg>