<?xml version="1.0" encoding="UTF-8"?>
<svg width="13px" height="13px" viewBox="0 0 13 13" version="1.1" xmlns="http://www.w3.org/2000/svg" xmlns:xlink="http://www.w3.org/1999/xlink">
    <!-- Generator: Sketch 51.1 (57501) - http://www.bohemiancoding.com/sketch -->
    <title>circle-tick copy</title>
    <desc>Created with Sketch.</desc>
    <defs></defs>
    <g id="Search-Results" stroke="none" stroke-width="1" fill="none" fill-rule="evenodd">
        <g id="circle-tick" stroke="#979797" stroke-width="0.9" fill="#00BD82">
            <g id="icons-/-circle-tick" stroke="none" stroke-width="1" transform="translate(0.648000, 0.648000)">
                <path d="M5.832,-0.204119875 C2.49834304,-0.204119875 -0.204119875,2.49834304 -0.204119875,5.832 C-0.204119875,9.16565696 2.49834304,11.8681199 5.832,11.8681199 C9.16565696,11.8681199 11.8681199,9.16565696 11.8681199,5.832 C11.8681199,4.23112147 11.2321734,2.69581077 10.1001813,1.5638187 C8.96818923,0.431826643 7.43287853,-0.204119875 5.832,-0.204119875 L5.832,-0.204119875 Z M5.832,10.6608959 C3.16507444,10.6608959 1.0031041,8.49892556 1.0031041,5.832 C1.0031041,3.16507444 3.16507444,1.0031041 5.832,1.0031041 C8.49892556,1.0031041 10.6608959,3.16507444 10.6608959,5.832 C10.6579021,8.49768449 8.49768449,10.6579021 5.832,10.6608959 Z M7.81969427,4.19802235 L4.92658202,7.09113461 L3.54249973,5.70705232 C3.30565513,5.47830015 2.92917878,5.48157163 2.69634524,5.71440517 C2.46351169,5.94723872 2.46024021,6.32371507 2.68899238,6.56055967 L4.92658202,8.79814931 L8.67320163,5.0515297 C8.90195379,4.8146851 8.89868232,4.43820875 8.66584877,4.2053752 C8.43301523,3.97254166 8.05653887,3.96927018 7.81969427,4.19802235 Z" id="Combined-Shape" fill-rule="nonzero"></path>
            </g>
        </g>
    </g>
</svg>