<?xml version="1.0" encoding="UTF-8"?>
<svg width="22px" height="15px" viewBox="0 0 22 15" version="1.1" xmlns="http://www.w3.org/2000/svg" xmlns:xlink="http://www.w3.org/1999/xlink">
    <!-- Generator: Sketch 49.3 (51167) - http://www.bohemiancoding.com/sketch -->
    <title>icon / visible_svg</title>
    <desc>Created with Sketch.</desc>
    <defs></defs>
    <g id="Page-1" stroke="none" stroke-width="1" fill="none" fill-rule="evenodd">
        <g id="Homepage-login" transform="translate(-849.000000, -427.000000)">
            <g id="icon-/-visible" transform="translate(848.000000, 423.000000)">
                <g id="Bounding_Boxes">
                    <polygon id="Shape" points="0 0 24 0 24 24 0 24"></polygon>
                </g>
                <g id="Outline" transform="translate(1.000000, 4.000000)" fill="#CCCCCC" fill-rule="nonzero">
                    <g id="Group">
                        <path d="M11,2 C14.79,2 18.17,4.13 19.82,7.5 C18.17,10.87 14.79,13 11,13 C7.21,13 3.83,10.87 2.18,7.5 C3.83,4.13 7.21,2 11,2 Z M11,0 C6,0 1.73,3.11 0,7.5 C1.73,11.89 6,15 11,15 C16,15 20.27,11.89 22,7.5 C20.27,3.11 16,0 11,0 Z" id="Shape"></path>
                        <path d="M11,5 C12.38,5 13.5,6.12 13.5,7.5 C13.5,8.88 12.38,10 11,10 C9.62,10 8.5,8.88 8.5,7.5 C8.5,6.12 9.62,5 11,5 Z M11,3 C8.52,3 6.5,5.02 6.5,7.5 C6.5,9.98 8.52,12 11,12 C13.48,12 15.5,9.98 15.5,7.5 C15.5,5.02 13.48,3 11,3 Z" id="Shape"></path>
                    </g>
                </g>
            </g>
        </g>
    </g>
</svg>